<svg shape-rendering="geometricPrecision" xmlns="http://www.w3.org/2000/svg" xmlns:xlink="http://www.w3.org/1999/xlink" x="0px"
	 y="0px" viewBox="0 0 1955.9055176 119.0551147" style="enable-background:new 0 0 1955.9055176 119.0551147;"
	 xml:space="preserve">
<style type="text/css">
	.st0{fill:#FFFFFF;}
	.st1{fill:#F4F4F4;}
	.st2{fill:#59AF89;}
</style>
<g>
	<rect class="st0" width="1955.9055176" height="119.0551147"/>
</g>
<g>
	<path class="st1" d="M1811.6751709,119.0551147H8.5960436C3.8485799,119.0551147,0,115.2065353,0,110.4590759V8.5960436
		C0,3.8485799,3.8485799,0,8.5960436,0h1803.0791016c4.7475586,0,8.5960693,3.8485799,8.5960693,8.5960436v101.8630295
		C1820.2712402,115.2065353,1816.4227295,119.0551147,1811.6751709,119.0551147z"/>
</g>
<g>
	<path class="st2" d="M1905.916626,17.3314896c14.3249512,0,25.9790039,11.6541748,25.9790039,25.979126
		s-11.6540527,25.979187-25.9790039,25.979187s-25.979248-11.6542358-25.979248-25.979187
		S1891.5916748,17.3314896,1905.916626,17.3314896 M1905.916626,10.3314886c-18.2138672,0-32.979248,14.7652597-32.979248,32.979126
		c0,18.2139282,14.7653809,32.979187,32.979248,32.979187s32.9790039-14.7652588,32.9790039-32.979187
		C1938.8956299,25.0967484,1924.1304932,10.3314886,1905.916626,10.3314886L1905.916626,10.3314886z"/>
</g>
<g>
	<path class="st2" d="M1950.8895264,111.030098c-1.0991211,0-2.1811523-0.5166016-2.862793-1.4829102l-26.1899414-37.1274414
		c-1.1142578-1.5795898-0.7373047-3.7631836,0.8422852-4.8774414c1.5805664-1.1142578,3.7636719-0.7363281,4.8774414,0.8422852
		l26.1899414,37.1274414c1.1142578,1.5795898,0.7373047,3.7631836-0.8422852,4.8774414
		C1952.2908936,110.8220901,1951.586792,111.030098,1950.8895264,111.030098z"/>
</g>
</svg>
