<?xml version="1.0" encoding="utf-8"?>
<!-- Generator: Adobe Illustrator 24.0.3, SVG Export Plug-In . SVG Version: 6.00 Build 0)  -->
<svg version="1.1" id="레이어_1" xmlns="http://www.w3.org/2000/svg" xmlns:xlink="http://www.w3.org/1999/xlink" x="0px"
	 y="0px" viewBox="0 0 545.6772461 545.6772461" style="enable-background:new 0 0 545.6772461 545.6772461;" xml:space="preserve">
<style type="text/css">
	.st0{fill:#57A783;}
</style>
<path class="st0" d="M272.838623-0.0000103c-150.6845703,0-272.838623,122.1539917-272.838623,272.838623
	s122.1540527,272.838623,272.838623,272.838623s272.8386841-122.1539917,272.8386841-272.838623
	S423.5231934-0.0000103,272.838623-0.0000103z M433.6433105,193.85466L241.5661469,405.3151245
	c-4.2470703,4.6757812-10.2641602,7.3515625-16.5810547,7.3720703c-0.0239258,0-0.0493164,0-0.0737305,0
	c-6.2905273,0-12.2939453-2.6328125-16.5551758-7.2626953L99.2414474,286.8717651
	c-8.4155273-9.1430664-7.8251953-23.3774414,1.3178711-31.7924957c9.1430664-8.4155273,23.3774414-7.8256836,31.7924728,1.3178864
	l92.4501953,100.4462891l175.5317535-193.2456207c8.3549805-9.1977539,22.5844727-9.8808594,31.7832031-1.5263672
	C441.3151855,170.4264374,441.9987793,184.6564178,433.6433105,193.85466z"/>
</svg>
