<svg xmlns="http://www.w3.org/2000/svg" viewBox="0 0 545.677 545.677"><path class="st0" d="M272.839 0c-150.685 0-272.839 122.154-272.839 272.839s122.154 272.839 272.839 272.839 272.839-122.154 272.839-272.839S423.523 0 272.839 0zM433.643 193.855L241.566 405.315c-4.247 4.676-10.264 7.352-16.581 7.372 -0.024 0-0.049 0-0.074 0 -6.291 0-12.294-2.633-16.555-7.263L99.241 286.872c-8.416-9.143-7.825-23.377 1.318-31.792 9.143-8.416 23.377-7.826 31.792 1.318l92.45 100.446 175.532-193.246c8.355-9.198 22.584-9.881 31.783-1.526C441.315 170.426 441.999 184.656 433.643 193.855z" fill="#57A783"/></svg>
