<?xml version="1.0" encoding="utf-8"?>
<!-- Generator: Adobe Illustrator 24.0.3, SVG Export Plug-In . SVG Version: 6.00 Build 0)  -->
<svg version="1.1" id="레이어_1" xmlns="http://www.w3.org/2000/svg" xmlns:xlink="http://www.w3.org/1999/xlink" x="0px"
	 y="0px" viewBox="0 0 475.4485779 413.4302368" style="enable-background:new 0 0 475.4485779 413.4302368;" xml:space="preserve">
<style type="text/css">
	.st0{fill:#606060;}
</style>
<path class="st0" d="M201.1592712,62.6827698c-1.0401306,0,1.0368652,0.019825,0,0.0307503l-0.0001221-58.4165001
	c-0.0000153-3.6110322-4.2869263-5.6057534-7.154892-3.3291979L43.1189728,120.7388535
	c-3.7238541,2.9559555-3.7554245,8.5008011-0.065464,11.4970779l150.9129791,120.5424957
	c2.8594208,2.3218689,7.1926422,0.3344269,7.1926422-3.2989044v-69.7268219l-3.1110077,0.0002747
	c120.2415466,0.587616,163.1569824,53.4663544,163.1569824,118.6387177c0,55.4645996-52.9646301,102.031311-124.531189,115.0385437
	c107.7857056-13.3191833,190.203125-93.8406982,190.203125-181.8513489
	C426.8770447,143.3499451,361.0426331,62.6827698,201.1592712,62.6827698z"/>
</svg>
