<?xml version="1.0" encoding="utf-8"?>
<!-- Generator: Adobe Illustrator 24.0.3, SVG Export Plug-In . SVG Version: 6.00 Build 0)  -->
<svg version="1.1" id="레이어_1" xmlns="http://www.w3.org/2000/svg" xmlns:xlink="http://www.w3.org/1999/xlink" x="0px"
	 y="0px" viewBox="0 0 140.3158722 226.7716522" style="enable-background:new 0 0 140.3158722 226.7716522;" xml:space="preserve">
<style type="text/css">
	.st0{fill:#59AF89;}
</style>
<path class="st0" d="M139.3157501,110.4524536l-8.1448364-10.5556641c-0.0001831-0.0001831-0.0002441-0.0004272-0.0004272-0.0006104
	l-53.7539062-69.664978l0.0002441-0.000061L56.3754845,2.9616106C54.9343452,1.0938948,52.7086105,0,50.3495331,0h-7.2148094
	H28.4846973H1.8857865c-1.5630032,0-2.4450798,1.7947513-1.490254,3.032203l25.1439133,32.5864487
	c0.0010986,0.0014038,0.0019531,0.0029907,0.0030518,0.0043945l58.6533508,76.0145111
	c0.7948532,1.0301361,0.7948532,2.4667816,0,3.4969177l-41.8935814,54.2939911h-0.000061L0.3955295,223.7394714
	c-0.9548249,1.237442-0.0727481,3.032196,1.4902546,3.032196h26.5989132h14.6500263h7.2148132
	c2.3590775,0,4.5848083-1.0938873,6.0259514-2.9616089l4.3834419-5.6809082
	c0.0001221-0.0001831,0.0002441-0.0003052,0.0003662-0.0004883l45.0211754-58.3474121v0.000061l2.3292847-3.0187988
	l23.06073-29.8866577c0.0009766-0.0012817,0.0018311-0.0026855,0.0028076-0.0039673l8.1424866-10.5527649
	C140.6492767,114.5908966,140.6492615,112.1806793,139.3157501,110.4524536z"/>
</svg>
