<?xml version="1.0" encoding="utf-8"?>
<!-- Generator: Adobe Illustrator 24.1.0, SVG Export Plug-In . SVG Version: 6.00 Build 0)  -->
<svg version="1.1" id="레이어_1" xmlns="http://www.w3.org/2000/svg" xmlns:xlink="http://www.w3.org/1999/xlink" x="0px"
	 y="0px" viewBox="0 0 342.1976013 413.4302368" style="enable-background:new 0 0 342.1976013 413.4302368;" xml:space="preserve">
<style type="text/css">
	.st0{fill:#606060;}
	.st1{fill:#FFFFFF;}
</style>
<path class="st0" d="M32.4363594,8.0000048h228.1706696c9.5206909,0,18.6514282,3.7820807,25.3835754,10.514226
	l45.6928101,45.6928558c6.7321167,6.732132,10.5141907,15.8628616,10.5141907,25.3835373V380.993866
	c0,17.9141235-14.5222473,32.4363708-32.4363708,32.4363708H32.4363594C14.522253,413.4302368,0,398.9079895,0,380.993866
	L0,40.4363632C0,22.5222588,14.522253,8.0000048,32.4363594,8.0000048z"/>
<path class="st1" d="M273.5522766,182.9533539H66.4151535c-6.2621193,0-11.3385696-5.0764618-11.3385696-11.3385773v-0.0000153
	c0-6.2621307,5.0764503-11.3385773,11.3385696-11.3385773h207.1371155c6.2621155,0,11.338562,5.0764465,11.338562,11.3385773
	v0.0000153C284.8908386,177.8768921,279.8143921,182.9533539,273.5522766,182.9533539z"/>
<path class="st1" d="M273.5522766,256.2965393H66.4151535c-6.2621193,0-11.3385696-5.0764465-11.3385696-11.338562v-0.0000305
	c0-6.2621155,5.0764503-11.3385773,11.3385696-11.3385773h207.1371155c6.2621155,0,11.338562,5.0764618,11.338562,11.3385773
	v0.0000305C284.8908386,251.2200928,279.8143921,256.2965393,273.5522766,256.2965393z"/>
<path class="st1" d="M273.5522766,329.63974H66.4151535c-6.2621193,0-11.3385696-5.0764465-11.3385696-11.3385925l0,0
	c0-6.2621155,5.0764503-11.3385925,11.3385696-11.3385925h207.1371155c6.2621155,0,11.338562,5.0764771,11.338562,11.3385925l0,0
	C284.8908386,324.5632935,279.8143921,329.63974,273.5522766,329.63974z"/>
</svg>
