<?xml version="1.0" encoding="utf-8"?>
<!-- Generator: Adobe Illustrator 24.0.3, SVG Export Plug-In . SVG Version: 6.00 Build 0)  -->
<svg version="1.1" id="레이어_1" xmlns="http://www.w3.org/2000/svg" xmlns:xlink="http://www.w3.org/1999/xlink" x="0px"
	 y="0px" viewBox="0 0 475.4485779 413.4302368" style="enable-background:new 0 0 475.4485779 413.4302368;" xml:space="preserve">
<style type="text/css">
	.st0{fill:#606060;}
</style>
<path class="st0" d="M393.1007996,305.4496155c-0.1079102-2.8493042,1.2605286-5.5751953,3.6086426-7.192749
	c47.2252197-32.5316162,78.7391357-77.44841,78.7391357-128.5873413C475.4485779,75.3887558,378.8713074,0,259.7372131,0
	S44.0258446,75.3887558,44.0258446,169.6695251s96.57724,168.6286316,215.7113647,168.6286316
	c9.68396,0,19.2158813-0.5121155,28.5609436-1.493103c3.6828308-0.3865662,7.3448486,0.7236328,10.2535095,3.0154419
	c34.5307312,27.2079163,85.360199,43.8620911,127.5566101,45.8986206c2.9478149,0.1422729,4.5322571-3.4156494,2.4517517-5.5088196
	C417.316803,368.8984375,394.4697571,341.6017151,393.1007996,305.4496155z"/>
<path class="st0" d="M100.300827,298.2148743c-37.1014671-28.8672485-59.9857864-66.2847137-65.9476471-107.0462341
	C12.9136639,211.2740631,0,237.2385254,0,265.7323914c0,34.8783264,21.4488144,65.5217896,53.6133537,87.7443848
	c1.716774,1.1861267,2.7452316,3.1524353,2.6600761,5.2373657c-1.0298653,25.2152405-17.3264885,44.0994263-24.7717915,51.4549561
	c-1.2347469,1.2198792-0.3311844,3.3319092,1.402998,3.2593079c28.5455055-1.1949768,63.0766563-12.281311,86.8728333-30.5333557
	c2.7414932-2.1027527,6.1495209-3.1202698,9.5884247-2.7865906c5.9194641,0.5744019,11.9464417,0.87323,18.0621796,0.87323
	c39.4987335,0,75.3682404-11.9589844,101.8356781-31.6291809
	C192.9295807,347.3664856,140.3691864,329.3895569,100.300827,298.2148743z"/>
</svg>
